<mxfile host="app.diagrams.net" modified="2022-11-06T10:55:11.674Z" agent="5.0 (Windows NT 10.0; Win64; x64) AppleWebKit/537.36 (KHTML, like Gecko) Chrome/107.0.0.0 Safari/537.36" etag="MdAURJJpHgzCEnSV73ig" version="20.5.2" type="github">
  <diagram id="0weqFYPXyTX20KwA0k1L" name="Recursion Tree">
    <mxGraphModel dx="782" dy="436" grid="1" gridSize="10" guides="1" tooltips="1" connect="1" arrows="1" fold="1" page="1" pageScale="1" pageWidth="850" pageHeight="1100" math="0" shadow="0">
      <root>
        <mxCell id="0" />
        <mxCell id="1" parent="0" />
        <mxCell id="557_tn059RS1hmj7QbiP-2" value="1" style="ellipse;whiteSpace=wrap;html=1;aspect=fixed;" vertex="1" parent="1">
          <mxGeometry x="360" y="50" width="60" height="60" as="geometry" />
        </mxCell>
        <mxCell id="557_tn059RS1hmj7QbiP-3" value="e" style="ellipse;whiteSpace=wrap;html=1;aspect=fixed;" vertex="1" parent="1">
          <mxGeometry x="300" y="120" width="60" height="60" as="geometry" />
        </mxCell>
        <mxCell id="557_tn059RS1hmj7QbiP-4" value="e" style="ellipse;whiteSpace=wrap;html=1;aspect=fixed;" vertex="1" parent="1">
          <mxGeometry x="420" y="120" width="60" height="60" as="geometry" />
        </mxCell>
        <mxCell id="557_tn059RS1hmj7QbiP-5" value="1" style="ellipse;whiteSpace=wrap;html=1;aspect=fixed;" vertex="1" parent="1">
          <mxGeometry x="230" y="200" width="60" height="60" as="geometry" />
        </mxCell>
        <mxCell id="557_tn059RS1hmj7QbiP-6" value="1" style="ellipse;whiteSpace=wrap;html=1;aspect=fixed;" vertex="1" parent="1">
          <mxGeometry x="330" y="210" width="60" height="60" as="geometry" />
        </mxCell>
        <mxCell id="557_tn059RS1hmj7QbiP-7" value="1" style="ellipse;whiteSpace=wrap;html=1;aspect=fixed;" vertex="1" parent="1">
          <mxGeometry x="410" y="210" width="60" height="60" as="geometry" />
        </mxCell>
        <mxCell id="557_tn059RS1hmj7QbiP-8" value="1" style="ellipse;whiteSpace=wrap;html=1;aspect=fixed;" vertex="1" parent="1">
          <mxGeometry x="490" y="210" width="60" height="60" as="geometry" />
        </mxCell>
      </root>
    </mxGraphModel>
  </diagram>
</mxfile>
